HIERARCHY
ROOT Hips
{
	OFFSET 0.00000 0.00000 0.00000
	CHANNELS 6 Xposition Yposition Zposition Zrotation Yrotation Xrotation 
	JOINT LHipJoint
	{
		OFFSET 0 0 0
		CHANNELS 3 Zrotation Yrotation Xrotation
		JOINT LeftUpLeg
		{
			OFFSET 1.29432 -1.88279 0.59910
			CHANNELS 3 Zrotation Yrotation Xrotation
			JOINT LeftLeg
			{
				OFFSET 2.63039 -7.22694 0.00000
				CHANNELS 3 Zrotation Yrotation Xrotation
				JOINT LeftFoot
				{
					OFFSET 2.70674 -7.43672 0.00000
					CHANNELS 3 Zrotation Yrotation Xrotation
					JOINT LeftToeBase
					{
						OFFSET 0.15066 -0.41394 2.09027
						CHANNELS 3 Zrotation Yrotation Xrotation
						End Site
						{
							OFFSET 0.00000 -0.00000 1.07518
						}
					}
				}
			}
		}
	}
	JOINT RHipJoint
	{
		OFFSET 0 0 0
		CHANNELS 3 Zrotation Yrotation Xrotation
		JOINT RightUpLeg
		{
			OFFSET -1.37068 -1.88279 0.59910
			CHANNELS 3 Zrotation Yrotation Xrotation
			JOINT RightLeg
			{
				OFFSET -2.57023 -7.06166 0.00000
				CHANNELS 3 Zrotation Yrotation Xrotation
				JOINT RightFoot
				{
					OFFSET -2.76461 -7.59570 0.00000
					CHANNELS 3 Zrotation Yrotation Xrotation
					JOINT RightToeBase
					{
						OFFSET -0.24175 -0.64785 2.19719
						CHANNELS 3 Zrotation Yrotation Xrotation
						End Site
						{
							OFFSET -0.00000 -0.00000 1.14803
						}
					}
				}
			}
		}
	}
	JOINT LowerBack
	{
		OFFSET 0 0 0
		CHANNELS 3 Zrotation Yrotation Xrotation
		JOINT Spine
		{
			OFFSET -0.03138 2.03983 -0.23106
			CHANNELS 3 Zrotation Yrotation Xrotation
			JOINT Spine1
			{
				OFFSET -0.00325 2.06238 -0.06878
				CHANNELS 3 Zrotation Yrotation Xrotation
				JOINT Neck
				{
					OFFSET 0 0 0
					CHANNELS 3 Zrotation Yrotation Xrotation
					JOINT Neck1
					{
						OFFSET -0.00002 1.75318 0.18090
						CHANNELS 3 Zrotation Yrotation Xrotation
						JOINT Head
						{
							OFFSET 0.08806 1.75856 -0.25387
							CHANNELS 3 Zrotation Yrotation Xrotation
							End Site
							{
								OFFSET 0.02554 1.78597 -0.10684
							}
						}
					}
				}
				JOINT LeftShoulder
				{
					OFFSET 0 0 0
					CHANNELS 3 Zrotation Yrotation Xrotation
					JOINT LeftArm
					{
						OFFSET 3.09657 1.33597 -0.04414
						CHANNELS 3 Zrotation Yrotation Xrotation
						JOINT LeftForeArm
						{
							OFFSET 5.34298 -0.00000 -0.00000
							CHANNELS 3 Zrotation Yrotation Xrotation
							JOINT LeftHand
							{
								OFFSET 3.67262 -0.00000 -0.00000
								CHANNELS 3 Zrotation Yrotation Xrotation
								JOINT LeftFingerBase
								{
									OFFSET 0 0 0
									CHANNELS 3 Zrotation Yrotation Xrotation
									JOINT LeftHandIndex1
									{
										OFFSET 0.59930 -0.00000 -0.00000
										CHANNELS 3 Zrotation Yrotation Xrotation
										End Site
										{
											OFFSET 0.48317 -0.00000 -0.00000
										}
									}
								}
								JOINT LThumb
								{
									OFFSET 0 0 0
									CHANNELS 3 Zrotation Yrotation Xrotation
									End Site
									{
										OFFSET 0.49055 -0.00000 0.49055
									}
								}
							}
						}
					}
				}
				JOINT RightShoulder
				{
					OFFSET 0 0 0
					CHANNELS 3 Zrotation Yrotation Xrotation
					JOINT RightArm
					{
						OFFSET -3.16460 1.32273 -0.23382
						CHANNELS 3 Zrotation Yrotation Xrotation
						JOINT RightForeArm
						{
							OFFSET -5.54967 -0.01834 0.03348
							CHANNELS 3 Zrotation Yrotation Xrotation
							JOINT RightHand
							{
								OFFSET -3.69401 -0.00000 0.00000
								CHANNELS 3 Zrotation Yrotation Xrotation
								JOINT RightFingerBase
								{
									OFFSET 0 0 0
									CHANNELS 3 Zrotation Yrotation Xrotation
									JOINT RightHandIndex1
									{
										OFFSET -0.63811 -0.00000 0.00000
										CHANNELS 3 Zrotation Yrotation Xrotation
										End Site
										{
											OFFSET -0.51446 -0.00000 0.00000
										}
									}
								}
								JOINT RThumb
								{
									OFFSET 0 0 0
									CHANNELS 3 Zrotation Yrotation Xrotation
									End Site
									{
										OFFSET -0.52232 -0.00000 0.52232
									}
								}
							}
						}
					}
				}
			}
		}
	}
}
MOTION
Frames: 14
Frame Time: .0083333
11.3907 17.6943 -14.031 0 0 0 0 0 0 -21 0 0 0 0 0 0 0 0 0 0 0 0 0 0 21 0 0 0 0 0 0 0 0 0 0 0 0 0 0 0 0 0 0 0 0 0 0 -16 0 0 21 0 0 11 0 0 0 -8 0 0 0 0 0 0 0 0 0 0 0 0 0 0 0 0 0 0 0 0 8 0 0 0 0 0 0 0 0 0 0 0 0 0 0 0 0 0
11.3907 17.6943 -14.0310 6.0374 -4.4683 2.8940 0.0000 0.0000 0.0000 -27.7866 7.4981 8.8862 0.0000 -0.0000 -0.0000 0.1646 -4.3175 -7.3678 0.7917 5.6799 15.8584 0.0000 0.0000 0.0000 10.8137 16.4497 -24.3042 -1.4518 -7.6161 21.5541 -0.0281 -11.9474 -17.3734 -0.1543 2.5310 -6.9756 -7.6528 -0.6892 0.4915 -2.8059 -0.8775 1.3819 1.3848 -0.5060 1.2250 0.5909 -0.0954 -9.9582 1.2355 -0.5889 24.1634 0.2570 -0.1052 9.2233 0.0000 0.0000 0.0000 -85.0817 -9.5430 24.0516 18.5076 -28.8023 -4.7913 -0.0000 -0.0000 19.7838 16.0694 30.2546 8.2580 -7.1250 0.0000 -0.0000 -17.7180 60.3592 -6.7619 0.0000 0.0000 0.0000 90.7770 -5.8780 17.5034 -19.2116 29.6807 -5.1352 0.0000 0.0000 16.3508 -25.5833 23.4930 -10.8051 7.1250 -0.0000 -0.0000 2.2148 -4.2662 2.0455
11.3666 17.6772 -13.9359 6.3783 -4.2722 2.7753 0.0000 0.0000 0.0000 -28.0110 7.4526 9.3689 0.0000 0.0000 0.0000 0.1622 -4.3806 -7.3326 0.6191 5.0354 14.0095 0.0000 0.0000 0.0000 10.7782 15.4263 -24.4510 -1.4972 -7.7291 21.8942 0.0002 -11.4627 -16.3114 -0.1679 2.6400 -7.2779 -7.8971 -0.7910 0.5851 -2.8448 -1.0236 1.3578 1.4800 -0.5787 1.1636 0.6795 0.0530 -9.9006 1.2603 -0.4057 24.2397 0.2703 -0.0090 9.2385 -0.0000 -0.0000 0.0000 -85.3037 -9.1797 23.0194 18.2068 -28.4212 -4.6472 -0.0000 -0.0000 20.3707 16.8527 28.7999 8.3027 -7.1250 0.0000 -0.0000 -15.8669 59.1458 -5.5713 -0.0000 -0.0000 0.0000 90.7537 -5.8910 17.5651 -19.0356 29.4629 -5.0483 0.0000 0.0000 16.6194 -26.4967 23.6349 -11.3020 7.1250 -0.0000 -0.0000 1.6704 -3.9317 1.5526
11.3394 17.6631 -13.8468 6.6431 -3.9253 2.8296 0.0000 0.0000 0.0000 -28.1569 7.2052 9.7923 0.0000 0.0000 0.0000 0.1682 -4.4495 -7.4651 0.5073 4.5658 12.6742 0.0000 0.0000 0.0000 10.8108 14.3114 -24.7888 -1.5524 -7.8639 22.3014 0.0653 -11.0461 -14.7214 -0.1826 2.7522 -7.5897 -7.9549 -0.8561 0.6373 -2.9666 -1.1188 1.2996 1.3873 -0.6221 1.0808 0.7607 0.0685 -10.0472 1.4562 -0.4538 24.4479 0.3193 -0.0010 9.3403 -0.0000 -0.0000 0.0000 -85.1607 -8.8790 22.7929 17.9161 -28.0496 -4.5097 -0.0000 -0.0000 20.3264 17.2096 27.9947 8.2721 -7.1250 0.0000 -0.0000 -14.9757 58.4444 -4.9961 -0.0000 -0.0000 0.0000 90.9837 -5.8961 17.0352 -18.8958 29.2890 -4.9798 0.0000 0.0000 16.9928 -26.8481 24.3554 -11.7912 7.1250 -0.0000 -0.0000 1.5524 -3.0863 1.4671
11.2991 17.6579 -13.7509 6.8085 -3.9437 2.7758 0.0000 0.0000 0.0000 -28.0901 7.3282 10.1929 0.0000 0.0000 0.0000 0.1686 -4.6245 -7.5073 0.5174 4.6100 12.7996 0.0000 0.0000 0.0000 11.0497 13.8152 -24.8538 -1.6132 -8.0090 22.7414 0.1581 -10.7309 -12.5501 -0.0495 1.4357 -3.9486 -8.2713 -0.8518 0.7307 -2.8565 -1.1302 1.2154 1.6781 -0.6251 0.9513 0.5357 0.0868 -10.0324 1.5387 -0.4049 24.5431 0.3917 0.0108 9.3708 0.0000 0.0000 0.0000 -85.4863 -8.2434 22.0340 17.8706 -27.9911 -4.4883 -0.0000 -0.0000 20.8176 16.9583 27.1247 7.9150 -7.1250 0.0000 -0.0000 -14.7205 57.5401 -4.5864 0.0000 0.0000 0.0000 90.8097 -6.0455 16.8241 -18.7548 29.1129 -4.9110 0.0000 0.0000 17.0971 -26.0968 24.3861 -11.4333 7.1250 -0.0000 -0.0000 2.0151 -3.2099 1.9003
11.2730 17.6682 -13.6405 7.0151 -3.6869 2.8974 0.0000 0.0000 0.0000 -28.1621 7.1112 10.4802 0.0000 -0.0000 -0.0000 0.1524 -4.8050 -7.2292 0.6575 5.1861 14.4402 0.0000 0.0000 0.0000 10.9402 13.5097 -25.1383 -1.6847 -8.1759 23.2496 0.2450 -10.7254 -10.5682 -0.0558 -1.5243 4.1926 -8.4137 -0.9860 0.4681 -2.7753 -1.2825 1.1700 1.8350 -0.7055 1.0713 0.4816 0.1140 -9.9127 1.3389 -0.3022 24.3796 0.3427 0.0310 9.2893 -0.0000 -0.0000 0.0000 -85.8433 -7.8268 21.1711 17.6226 -27.6712 -4.3726 -0.0000 -0.0000 21.3553 14.4062 29.5670 7.2238 -7.1250 0.0000 -0.0000 -18.9865 59.3210 -6.7929 -0.0000 -0.0000 0.0000 90.6116 -6.2019 16.8240 -18.6426 28.9722 -4.8565 0.0000 0.0000 17.3922 -25.8420 23.8131 -11.0645 7.1250 -0.0000 -0.0000 2.0961 -3.8732 1.9511
11.2421 17.6790 -13.5378 7.2749 -3.3378 2.6618 0.0000 0.0000 0.0000 -28.2067 6.9715 11.1298 0.0000 -0.0000 -0.0000 0.1333 -4.9046 -6.8665 0.8063 5.7307 16.0050 0.0000 0.0000 0.0000 10.7586 13.5613 -24.8943 -1.7589 -8.3448 23.7662 0.3152 -11.1814 -9.6737 -0.0041 -0.4155 1.1418 -8.5261 -1.0573 0.6698 -2.8500 -1.3961 1.2194 1.8222 -0.7621 1.0209 0.5701 0.0795 -9.9460 1.3142 -0.3638 24.4581 0.3127 0.0084 9.3235 0.0000 0.0000 0.0000 -85.7871 -7.5741 20.7681 17.1408 -27.0431 -4.1512 -0.0000 -0.0000 21.5355 14.6092 30.0303 7.4320 -7.1250 0.0000 -0.0000 -19.1107 59.8042 -7.0615 0.0000 0.0000 0.0000 90.7255 -6.2066 16.5601 -18.3770 28.6372 -4.7285 0.0000 0.0000 18.0349 -26.5215 23.2374 -11.1388 7.1250 -0.0000 -0.0000 1.6030 -4.3533 1.4773
11.2135 17.6897 -13.4315 7.2413 -3.2807 2.7431 0.0000 0.0000 0.0000 -28.0196 6.9718 11.4035 0.0000 -0.0000 -0.0000 0.1233 -4.7912 -6.6248 0.7301 5.4591 15.2228 0.0000 0.0000 0.0000 10.7946 14.2281 -24.7548 -1.8281 -8.4984 24.2383 0.3734 -11.8123 -9.5730 -0.0040 -0.4096 1.1255 -8.3636 -1.1049 0.4862 -2.7768 -1.4488 1.0845 1.8056 -0.7828 0.9865 0.3084 0.1244 -9.8534 1.5743 -0.3191 24.8184 0.4530 0.0344 9.4329 0.0000 0.0000 0.0000 -85.9272 -6.9342 20.0511 16.8086 -26.6048 -4.0013 -0.0000 -0.0000 21.7771 15.2568 29.8687 7.7355 -7.1250 0.0000 -0.0000 -18.3049 59.8019 -6.7502 0.0000 0.0000 0.0000 90.6456 -6.3149 16.2926 -18.0599 28.2338 -4.5776 0.0000 0.0000 18.2871 -26.6892 23.1732 -11.1899 7.1250 -0.0000 -0.0000 1.4911 -4.3885 1.3731
11.1881 17.6994 -13.3280 7.0618 -3.0013 2.4938 0.0000 0.0000 0.0000 -27.6270 6.9660 12.1526 0.0000 0.0000 0.0000 0.1161 -4.5250 -6.3945 0.5450 4.7299 13.1396 0.0000 0.0000 0.0000 11.1318 14.3002 -24.3130 -1.9029 -8.6609 24.7402 0.3954 -12.1081 -9.7254 -0.0370 -1.2417 3.4141 -8.1256 -1.1854 0.7617 -2.5791 -1.5877 1.0755 1.8837 -0.8457 0.8336 0.0583 0.1470 -9.6111 1.6293 -0.2488 24.7651 0.5215 0.0487 9.3673 -0.0000 -0.0000 0.0000 -85.9972 -6.5199 20.0237 16.3418 -25.9820 -3.7945 -0.0000 -0.0000 21.2956 14.2217 30.5416 7.3387 -7.1250 0.0000 -0.0000 -19.9081 60.1934 -7.5562 -0.0000 -0.0000 0.0000 90.4279 -6.3478 16.1134 -17.8435 27.9564 -4.4756 0.0000 0.0000 17.5903 -25.9581 23.3766 -10.9326 7.1250 -0.0000 -0.0000 1.9688 -4.3166 1.8161
11.1697 17.7113 -13.2216 6.8659 -2.6328 2.1635 0.0000 0.0000 0.0000 -27.2144 6.9355 13.0654 0.0000 -0.0000 -0.0000 0.1045 -4.5021 -6.1237 0.4686 4.3907 12.1784 0.0000 0.0000 0.0000 11.6256 13.4929 -23.9672 -1.9786 -8.8214 25.2382 0.3626 -11.7345 -9.6969 -0.1008 -2.0476 5.6371 -7.6454 -1.2453 1.0367 -2.5304 -1.6853 1.2209 1.6724 -0.8939 0.8249 0.0583 0.0780 -9.3863 1.6300 -0.3382 24.3996 0.5102 0.0048 9.1973 0.0000 0.0000 0.0000 -85.9719 -6.3595 19.7302 15.8429 -25.3072 -3.5786 -0.0000 -0.0000 21.1549 13.5536 30.5226 6.9802 -7.1250 0.0000 -0.0000 -20.5998 60.0190 -7.7458 0.0000 0.0000 0.0000 90.5031 -6.1230 15.7903 -17.4543 27.4528 -4.2947 0.0000 0.0000 17.0796 -26.2697 23.3351 -11.0623 7.1250 -0.0000 -0.0000 1.7711 -4.2990 1.6342
11.1502 17.7123 -13.1121 6.7467 -2.3826 1.9595 0.0000 0.0000 0.0000 -26.9800 6.9399 13.7499 0.0000 -0.0000 -0.0000 0.0944 -4.1810 -5.7919 0.3148 3.6068 9.9731 0.0000 0.0000 0.0000 11.9780 12.8307 -23.7076 -2.0518 -8.9731 25.7112 0.3080 -11.1497 -9.8115 -0.1602 -2.5785 7.1073 -7.1957 -1.2869 1.0360 -2.5570 -1.7290 1.3726 1.3935 -0.9192 0.9705 0.1469 0.0718 -9.5664 1.7142 -0.3883 24.5347 0.5195 0.0001 9.2795 0.0000 0.0000 0.0000 -86.3577 -5.9838 17.7302 15.6208 -25.0038 -3.4841 -0.0000 -0.0000 22.7496 13.7169 29.9075 6.9389 -7.1250 0.0000 -0.0000 -19.9604 59.4832 -7.2364 0.0000 0.0000 0.0000 90.6484 -5.8520 15.1013 -17.0199 26.8840 -4.0963 0.0000 0.0000 17.7724 -26.7390 23.6761 -11.4371 7.1250 -0.0000 -0.0000 1.5268 -3.8380 1.4217
11.1238 17.7082 -12.9986 6.7002 -2.5175 1.8316 0.0000 0.0000 0.0000 -26.8504 7.2468 14.1932 0.0000 0.0000 0.0000 0.0798 -3.6655 -5.2777 0.1155 2.1908 6.0331 0.0000 0.0000 0.0000 12.2490 12.5814 -23.4534 -2.1214 -9.1144 26.1539 0.2373 -10.3432 -9.9229 -0.1973 -2.8601 7.8896 -6.9481 -1.1907 0.8182 -2.5740 -1.5705 1.5159 1.2319 -0.8476 1.2208 0.3140 0.0818 -10.0240 1.7058 -0.4153 24.8978 0.4877 0.0066 9.4947 0.0000 -0.0000 0.0000 -86.6421 -5.6795 16.3146 15.3200 -24.5900 -3.3580 -0.0000 -0.0000 24.1855 13.5559 29.9896 6.8720 -7.1250 0.0000 -0.0000 -20.1906 59.5230 -7.3435 0.0000 -0.0000 0.0000 90.7418 -5.5578 14.1023 -16.6342 26.3730 -3.9235 0.0000 0.0000 18.7535 -26.4944 24.4999 -11.6790 7.1250 -0.0000 -0.0000 1.7879 -3.0059 1.6925
11.1012 17.7157 -12.8856 6.3532 -2.5239 1.6890 0.0000 0.0000 0.0000 -26.3183 7.4404 14.7289 0.0000 0.0000 0.0000 0.0535 -3.8995 -4.6068 0.1072 2.1109 5.8123 0.0000 0.0000 0.0000 12.8987 11.9297 -23.1548 -2.1733 -9.2181 26.4800 0.1600 -9.4025 -10.0383 -0.2221 -3.0334 8.3717 -6.3660 -1.1283 0.6640 -2.4694 -1.4690 1.6132 1.0129 -0.7970 1.3867 0.4573 0.0941 -9.8625 1.5485 -0.3813 24.7014 0.4117 0.0173 9.3940 0.0000 0.0000 0.0000 -86.8646 -5.4147 15.3860 14.8218 -23.8972 -3.1534 -0.0000 -0.0000 25.0078 15.8714 29.2831 7.9172 -7.1250 0.0000 -0.0000 -17.2369 59.3863 -6.1695 0.0000 0.0000 0.0000 90.7608 -5.3354 13.1478 -16.2185 25.8160 -3.7406 0.0000 0.0000 19.5191 -26.3459 24.8566 -11.7593 7.1250 -0.0000 -0.0000 1.9271 -2.6560 1.8368
11.0846 17.7323 -12.7826 5.9886 -2.3238 1.7862 0.0000 0.0000 0.0000 -25.7753 7.3009 15.0337 0.0000 0.0000 0.0000 0.0315 -3.7291 -3.8366 0.1977 2.8629 7.8972 0.0000 0.0000 0.0000 13.5041 10.8693 -23.2476 -2.2056 -9.2817 26.6807 0.0974 -8.5191 -10.0091 -0.1437 -2.4426 6.7305 -5.7809 -1.1222 0.5371 -2.2789 -1.4589 1.5125 0.8830 -0.7834 1.3416 0.3885 0.0851 -9.3725 1.5120 -0.3611 24.4546 0.4115 0.0135 9.2141 0.0000 0.0000 0.0000 -87.2936 -4.9545 14.0890 14.3217 -23.1928 -2.9536 -0.0000 -0.0000 26.2986 19.3296 27.7046 9.2622 -7.1250 0.0000 -0.0000 -12.5389 58.6340 -4.2223 0.0000 0.0000 0.0000 90.6108 -5.3486 12.1521 -15.9041 25.3904 -3.6047 0.0000 0.0000 20.4241 -25.3536 24.4888 -11.1123 7.1250 -0.0000 -0.0000 2.4824 -3.2518 2.3398
